# xmcd
#
# Track frame offsets:
#	150
#	15074
#	31713
#	47316
#	68533
#	84222
#	102493
#	118521
#	135696
#	152936
#
# Disc length: 2263 seconds
#
# Revision: 0
# Processed by: cddbd v1.5.2PL0 Copyright (c) Steve Scherf et al.
# Submitted via: audiograbber 1.83.01
#
DISCID=6608d50a
DTITLE=Wallenstein - Fräuleins
DYEAR=1980
DGENRE=Rock
TTITLE0=Woman In Love
TTITLE1=Rock High
TTITLE2=Father And Son
TTITLE3=Born In The City
TTITLE4=Lay Down
TTITLE5=Stay On Your Own
TTITLE6=We Need Your Love
TTITLE7=I´ll Be Around
TTITLE8=Welcome Tonight
TTITLE9=Downtown
EXTD=
EXTT0=
EXTT1=
EXTT2=
EXTT3=
EXTT4=
EXTT5=
EXTT6=
EXTT7=
EXTT8=
EXTT9=
PLAYORDER=
